<svg width="160" height="48" viewBox="0 0 160 48" fill="none" xmlns="http://www.w3.org/2000/svg">
<path fill-rule="evenodd" clip-rule="evenodd" d="M23.6882 28.2764V19.5982H48L47.9904 42.0269C47.9904 45.3255 45.3265 48 42.0391 48H5.94971C2.66391 48 0 45.3255 0 42.0269V5.97145C0 2.67453 2.66391 0 5.94971 0H42.0391C45.3265 0 47.9904 2.67453 47.9904 5.97145V17.3611L37.1344 17.3643C34.6612 12.4527 29.7774 9.19279 23.9191 9.19279C15.6292 9.19279 9.08004 15.7593 9.08004 24.0756C9.08004 32.3919 15.7045 38.9471 23.996 38.9471C30.8225 38.9471 36.3474 34.5357 38.1682 28.2764H23.6882Z" fill="#E11F27"/>
<g clip-path="url(#clip0_437_158)">
<path d="M63.7201 28.524C62.5368 28.1201 61.6234 27.5294 60.9734 26.735C60.3234 25.9407 60.0034 25.0262 60.0034 23.9949C60.0034 22.9635 60.3601 21.979 61.0701 21.1746C61.7801 20.3803 62.8234 19.7761 64.1968 19.3623C65.2634 19.0419 66.7068 18.875 68.5201 18.875C70.3334 18.875 71.5634 18.9818 72.4401 19.172C73.3034 19.3723 74.0134 19.6827 74.5968 20.0966C75.1668 20.5104 75.5901 21.0444 75.8768 21.6852L71.1868 22.2093C70.9968 21.8421 70.6668 21.5551 70.2034 21.3548C69.7401 21.1646 69.1468 21.0578 68.4268 21.0578C67.3468 21.0578 66.4968 21.2948 65.8568 21.7587C65.2201 22.2226 64.8968 22.9569 64.8968 23.9648C64.8968 25.0429 65.2168 25.8038 65.8568 26.2644C66.5068 26.715 67.3968 26.952 68.5468 26.952C69.0901 26.952 69.6134 26.9052 70.1101 26.7984C70.6068 26.7016 71.1768 26.5381 71.8034 26.3011V25.3866H68.5601V23.324H76.0901V27.5194C74.6468 28.1468 73.3668 28.564 72.2534 28.7876C71.1501 29.0113 69.8368 29.1314 68.3101 29.1314C66.4401 29.1314 64.9134 28.9312 63.7268 28.5273L63.7201 28.524Z" fill="black"/>
<path d="M89.46 28.9611L88.6667 27.3124H83.16L82.3667 28.9611H77.38L83.2667 19.0352H88.6333L94.5633 28.9611H89.46ZM84.1933 25.1663H87.64L85.91 21.6084L84.1933 25.1663Z" fill="black"/>
<path d="M101.197 19.0352H96.3066V28.9611H101.197V19.0352Z" fill="black"/>
<path d="M108.537 28.9611V21.505H103.563V19.0352H118.413V21.505H113.44V28.9611H108.537Z" fill="black"/>
<path d="M120.603 28.9611V19.0352H133.643V21.1846H125.493V22.7466H133.06V24.7658H125.493V26.6983H133.88V28.9611H120.603Z" fill="black"/>
<path d="M139.67 28.524C138.497 28.1201 137.573 27.5294 136.923 26.735C136.283 25.9407 135.953 25.0262 135.953 23.9949C135.953 22.9635 136.307 21.979 137.02 21.1746C137.73 20.3803 138.773 19.7761 140.147 19.3623C141.223 19.0419 142.657 18.875 144.467 18.875C146.277 18.875 147.523 18.9818 148.387 19.172C149.253 19.3723 149.963 19.6827 150.543 20.0966C151.113 20.5104 151.537 21.0444 151.823 21.6852L147.147 22.2093C146.947 21.8421 146.613 21.5551 146.15 21.3548C145.687 21.1646 145.097 21.0578 144.373 21.0578C143.297 21.0578 142.443 21.2948 141.803 21.7587C141.163 22.2226 140.843 22.9569 140.843 23.9648C140.843 25.0429 141.163 25.8038 141.817 26.2644C142.453 26.715 143.343 26.952 144.493 26.952C145.04 26.952 145.56 26.9052 146.057 26.7984C146.553 26.7016 147.123 26.5381 147.76 26.3011V25.3866H144.503V23.324H152.033V27.5194C150.59 28.1468 149.31 28.564 148.207 28.7876C147.093 29.0113 145.78 29.1314 144.253 29.1314C142.38 29.1314 140.853 28.9312 139.67 28.5273V28.524Z" fill="black"/>
<path d="M160 19.0352H155.097V28.9611H160V19.0352Z" fill="black"/>
</g>
<defs>
<clipPath id="clip0_437_158">
<rect width="100" height="10.2564" fill="white" transform="translate(60 18.8716)"/>
</clipPath>
</defs>
</svg>
