<svg width="22" height="22" viewBox="0 0 22 22" fill="none" xmlns="http://www.w3.org/2000/svg">
<path d="M21.371 2.28609L21.3346 2.26338L16.7404 0L11.7818 6.61155L14.0631 9.65357C13.9949 10.8008 13.5084 11.8832 12.6957 12.6958C11.8831 13.5084 10.8007 13.9949 9.65346 14.0632L6.6115 11.7818L0 16.7404L2.24454 21.2962L2.26343 21.3346L2.28619 21.3709C2.40597 21.5639 2.57316 21.7231 2.77183 21.8332C2.9705 21.9433 3.19405 22.0007 3.4212 22H4.60666C6.89079 22 9.15255 21.5501 11.2628 20.676C13.3731 19.8019 15.2905 18.5207 16.9056 16.9056C18.5207 15.2905 19.8019 13.373 20.676 11.2628C21.5501 9.1525 22 6.89074 22 4.60661V3.42109C22.0007 3.19395 21.9433 2.9704 21.8332 2.77173C21.7231 2.57305 21.564 2.40587 21.371 2.28609ZM20.3022 4.60661C20.3022 13.2612 13.2612 20.3022 4.60666 20.3022H3.64742L2.14565 17.2535L6.61182 13.9039L9.09835 15.7687H9.38129C11.0749 15.7668 12.6985 15.0932 13.8961 13.8957C15.0936 12.6982 15.7672 11.0745 15.7691 9.38092V9.09797L13.9043 6.6115L17.2535 2.1456L20.3022 3.64764V4.60661Z" fill="#FDFDFD"/>
</svg>
